<svg xmlns="http://www.w3.org/2000/svg" width="963.8717578124999" height="46" viewBox="0 0 963.8717578124999 46" font-family="'Inter', system-ui, -apple-system, 'Segoe UI', Roboto, Helvetica, Arial, sans-serif"><rect x="0" y="0" width="160.00119140625" height="46" rx="10" fill="#141619" stroke="#33373D"/><path d="M18.836 27.0V18.97H20.134L20.97 21.566000000000003Q21.091 21.918 21.19 22.264499999999998Q21.289 22.611 21.333 22.798000000000002Q21.387999999999998 22.611 21.476 22.264499999999998Q21.564 21.918 21.674 21.555L22.466 18.97H23.764V27.0H22.796V24.085Q22.796 23.601 22.829 22.985Q22.862000000000002 22.369 22.917 21.7255Q22.972 21.082 23.0325 20.4935Q23.093 19.905 23.137 19.465L21.839 23.48H20.794L19.485 19.465Q19.54 19.894 19.595 20.4605Q19.65 21.027 19.694 21.6595Q19.738 22.292 19.771 22.919Q19.804 23.546 19.804 24.085V27.0Z M27.075000000000003 27.0V26.098H28.714000000000002V19.872H27.075000000000003V18.97H31.365000000000002V19.872H29.726000000000003V26.098H31.365000000000002V27.0Z M34.830000000000005 27.0V18.97H36.150000000000006L38.603 25.845Q38.581 25.57 38.5535 25.1685Q38.526 24.767 38.5095 24.3215Q38.493 23.876 38.493 23.48V18.97H39.45V27.0H38.13L35.688 20.125Q35.71 20.389 35.732 20.7905Q35.754000000000005 21.192 35.770500000000006 21.6375Q35.787000000000006 22.083 35.787000000000006 22.490000000000002V27.0Z M42.86 27.0V18.97H47.48V19.872H43.839V22.358H47.095V23.249H43.839V26.098H47.48V27.0Z M53.024 27.11Q52.298 27.11 51.7645 26.835Q51.231 26.56 50.939499999999995 26.0375Q50.647999999999996 25.515 50.647999999999996 24.8V21.17Q50.647999999999996 20.444 50.939499999999995 19.927Q51.231 19.41 51.7645 19.134999999999998Q52.298 18.86 53.024 18.86Q53.75 18.86 54.278 19.1405Q54.806 19.421 55.092 19.938Q55.378 20.455 55.378 21.17H54.388Q54.388 20.488 54.0305 20.119500000000002Q53.673 19.751 53.024 19.751Q52.375 19.751 52.0065 20.114Q51.638 20.477 51.638 21.159V24.8Q51.638 25.482 52.0065 25.8505Q52.375 26.219 53.024 26.219Q53.673 26.219 54.0305 25.8505Q54.388 25.482 54.388 24.8H55.378Q55.378 25.504 55.092 26.0265Q54.806 26.549 54.278 26.8295Q53.75 27.11 53.024 27.11Z M58.611999999999995 27.0V18.97H61.09799999999999Q61.812999999999995 18.97 62.35199999999999 19.261499999999998Q62.89099999999999 19.553 63.18799999999999 20.07Q63.48499999999999 20.587 63.48499999999999 21.28Q63.48499999999999 22.094 63.061499999999995 22.677Q62.63799999999999 23.26 61.91199999999999 23.48L63.59499999999999 27.0H62.428999999999995L60.888999999999996 23.59H59.602V27.0ZM59.602 22.698999999999998H61.09799999999999Q61.71399999999999 22.698999999999998 62.087999999999994 22.3085Q62.461999999999996 21.918 62.461999999999996 21.28Q62.461999999999996 20.631 62.087999999999994 20.246000000000002Q61.71399999999999 19.861 61.09799999999999 19.861H59.602Z M66.07 27.0 68.16 18.97H69.491L71.57 27.0H70.56899999999999L70.041 24.866H67.61L67.082 27.0ZM67.80799999999999 24.03H69.832L69.216 21.555Q69.03999999999999 20.851 68.941 20.378Q68.842 19.905 68.82 19.762Q68.798 19.905 68.699 20.378Q68.6 20.851 68.42399999999999 21.544Z M74.485 27.0V18.959H79.215V19.861H75.453V22.534H78.929V23.436H75.475V27.0Z M84.16499999999999 27.0V19.861H81.965V18.959H87.355V19.861H85.155V27.0Z" fill="#85888E"/><path d="M100.22873046875 28.0V26.640625L103.889130859375 23.036865234375Q104.4059765625 22.505859375 104.7564404296875 22.09521484375Q105.106904296875 21.6845703125 105.2874462890625 21.2987060546875Q105.46798828125 20.912841796875 105.46798828125 20.459716796875Q105.46798828125 19.964111328125 105.2378857421875 19.60302734375Q105.007783203125 19.241943359375 104.6148388671875 19.0472412109375Q104.22189453125 18.8525390625 103.719208984375 18.8525390625Q103.188203125 18.8525390625 102.7952587890625 19.06494140625Q102.402314453125 19.27734375 102.189912109375 19.6702880859375Q101.977509765625 20.063232421875 101.977509765625 20.6083984375H100.17208984375Q100.17208984375 19.610107421875 100.6287548828125 18.86669921875Q101.085419921875 18.123291015625 101.8890087890625 17.7161865234375Q102.69259765625 17.30908203125 103.74044921875 17.30908203125Q104.795380859375 17.30908203125 105.5954296875 17.70556640625Q106.395478515625 18.10205078125 106.8415234375 18.7923583984375Q107.287568359375 19.482666015625 107.287568359375 20.36767578125Q107.287568359375 20.955322265625 107.0680859375 21.5146484375Q106.848603515625 22.073974609375 106.282197265625 22.7784423828125Q105.715791015625 23.48291015625 104.682099609375 24.47412109375L102.848359375 26.34326171875V26.421142578125H107.443330078125V28.0Z M113.064912109375 28.1416015625Q112.314423828125 28.1416015625 111.5957958984375 27.8831787109375Q110.87716796875 27.624755859375 110.3001416015625 27.0335693359375Q109.723115234375 26.4423828125 109.383271484375 25.4617919921875Q109.043427734375 24.481201171875 109.043427734375 23.02978515625Q109.043427734375 21.67041015625 109.3301708984375 20.6119384765625Q109.6169140625 19.553466796875 110.1585400390625 18.817138671875Q110.700166015625 18.080810546875 111.464814453125 17.6949462890625Q112.229462890625 17.30908203125 113.178193359375 17.30908203125Q114.16232421875 17.30908203125 114.9305126953125 17.698486328125Q115.698701171875 18.087890625 116.17306640625 18.760498046875Q116.647431640625 19.43310546875 116.760712890625 20.289794921875H114.905732421875Q114.75705078125 19.680908203125 114.311005859375 19.312744140625Q113.8649609375 18.944580078125 113.178193359375 18.944580078125Q112.441865234375 18.944580078125 111.9285595703125 19.37646484375Q111.41525390625 19.808349609375 111.1497509765625 20.6119384765625Q110.884248046875 21.41552734375 110.884248046875 22.5341796875H110.96212890625Q111.21701171875 22.073974609375 111.6170361328125 21.748291015625Q112.017060546875 21.422607421875 112.5232861328125 21.2491455078125Q113.02951171875 21.07568359375 113.588837890625 21.07568359375Q114.516328125 21.07568359375 115.2561962890625 21.5181884765625Q115.996064453125 21.960693359375 116.42794921875 22.7359619140625Q116.859833984375 23.51123046875 116.859833984375 24.5166015625Q116.859833984375 25.55029296875 116.38546875 26.37158203125Q115.911103515625 27.19287109375 115.0579541015625 27.667236328125Q114.2048046875 28.1416015625 113.064912109375 28.1416015625ZM113.05783203125 26.605224609375Q113.617158203125 26.605224609375 114.063203125 26.3326416015625Q114.509248046875 26.06005859375 114.7676708984375 25.5927734375Q115.02609375 25.12548828125 115.02609375 24.552001953125Q115.02609375 23.985595703125 114.7747509765625 23.525390625Q114.523408203125 23.065185546875 114.084443359375 22.796142578125Q113.645478515625 22.527099609375 113.079072265625 22.527099609375Q112.66134765625 22.527099609375 112.300263671875 22.6864013671875Q111.9391796875 22.845703125 111.6665966796875 23.12890625Q111.394013671875 23.412109375 111.24533203125 23.7802734375Q111.096650390625 24.1484375 111.096650390625 24.55908203125Q111.096650390625 25.111328125 111.351533203125 25.57861328125Q111.606416015625 26.0458984375 112.0524609375 26.3255615234375Q112.498505859375 26.605224609375 113.05783203125 26.605224609375Z M119.8971875 28.120361328125Q119.422822265625 28.120361328125 119.0935986328125 27.794677734375Q118.764375 27.468994140625 118.764375 26.987548828125Q118.764375 26.51318359375 119.0935986328125 26.1875Q119.422822265625 25.86181640625 119.8971875 25.86181640625Q120.3786328125 25.86181640625 120.7078564453125 26.1875Q121.037080078125 26.51318359375 121.037080078125 26.987548828125Q121.037080078125 27.468994140625 120.7078564453125 27.794677734375Q120.3786328125 28.120361328125 119.8971875 28.120361328125Z M127.2887890625 17.45068359375V28.0H125.412568359375V19.1357421875H125.341767578125L122.877900390625 20.90576171875V19.107421875L125.1930859375 17.45068359375Z M130.651826171875 28.120361328125Q130.1774609375 28.120361328125 129.8482373046875 27.794677734375Q129.519013671875 27.468994140625 129.519013671875 26.987548828125Q129.519013671875 26.51318359375 129.8482373046875 26.1875Q130.1774609375 25.86181640625 130.651826171875 25.86181640625Q131.133271484375 25.86181640625 131.4624951171875 26.1875Q131.79171875 26.51318359375 131.79171875 26.987548828125Q131.79171875 27.468994140625 131.4624951171875 27.794677734375Q131.133271484375 28.120361328125 130.651826171875 28.120361328125Z M133.9157421875 28.0V26.640625L137.576142578125 23.036865234375Q138.09298828125 22.505859375 138.4434521484375 22.09521484375Q138.793916015625 21.6845703125 138.9744580078125 21.2987060546875Q139.155 20.912841796875 139.155 20.459716796875Q139.155 19.964111328125 138.9248974609375 19.60302734375Q138.694794921875 19.241943359375 138.3018505859375 19.0472412109375Q137.90890625 18.8525390625 137.406220703125 18.8525390625Q136.87521484375 18.8525390625 136.4822705078125 19.06494140625Q136.089326171875 19.27734375 135.876923828125 19.6702880859375Q135.664521484375 20.063232421875 135.664521484375 20.6083984375H133.8591015625Q133.8591015625 19.610107421875 134.3157666015625 18.86669921875Q134.772431640625 18.123291015625 135.5760205078125 17.7161865234375Q136.379609375 17.30908203125 137.4274609375 17.30908203125Q138.482392578125 17.30908203125 139.28244140625 17.70556640625Q140.082490234375 18.10205078125 140.52853515625 18.7923583984375Q140.974580078125 19.482666015625 140.974580078125 20.36767578125Q140.974580078125 20.955322265625 140.75509765625 21.5146484375Q140.535615234375 22.073974609375 139.969208984375 22.7784423828125Q139.402802734375 23.48291015625 138.369111328125 24.47412109375L136.53537109375 26.34326171875V26.421142578125H141.130341796875V28.0Z" fill="#ECEAE3"/><rect x="174.00119140625" y="0" width="184.90964843749998" height="46" rx="10" fill="#141619" stroke="#33373D"/><path d="M195.34519140625 27.11Q194.55319140625 27.11 193.98669140625 26.846Q193.42019140625 26.582 193.11219140625002 26.087Q192.80419140625 25.592 192.79319140625 24.91H193.78319140625Q193.78319140625 25.515 194.19569140625 25.867Q194.60819140625 26.219 195.34519140625 26.219Q196.03819140625 26.219 196.42869140625 25.878Q196.81919140625 25.537 196.81919140625 24.932Q196.81919140625 24.448 196.56069140625 24.085Q196.30219140625 23.722 195.81819140625 23.579L194.72919140625 23.238Q193.90419140625 22.985 193.45869140625 22.391Q193.01319140625 21.797 193.01319140625 20.994Q193.01319140625 20.345 193.30469140625002 19.866500000000002Q193.59619140625 19.388 194.12419140625002 19.1185Q194.65219140625 18.849 195.36719140625002 18.849Q196.42319140625 18.849 197.06119140625 19.4375Q197.69919140625 20.026 197.71019140625 21.005000000000003H196.72019140625Q196.72019140625 20.411 196.36269140625 20.0755Q196.00519140625 19.740000000000002 195.35619140625 19.740000000000002Q194.71819140625 19.740000000000002 194.36069140625 20.048000000000002Q194.00319140625 20.356 194.00319140625 20.906Q194.00319140625 21.401 194.26719140625 21.764000000000003Q194.53119140625 22.127000000000002 195.02619140625 22.281L196.12619140625 22.633Q196.92919140625 22.886 197.36919140625 23.491Q197.80919140625 24.096 197.80919140625 24.91Q197.80919140625 25.57 197.50119140625 26.064999999999998Q197.19319140625 26.56 196.63769140624998 26.835Q196.08219140625 27.11 195.34519140625 27.11Z M201.02119140624998 27.0V18.97H205.64119140625V19.872H202.00019140625V22.358H205.25619140625V23.249H202.00019140625V26.098H205.64119140625V27.0Z M208.85319140625 27.0V18.97H211.33919140625Q212.05419140625 18.97 212.59319140625 19.261499999999998Q213.13219140625 19.553 213.42919140625 20.07Q213.72619140625 20.587 213.72619140625 21.28Q213.72619140625 22.094 213.30269140625 22.677Q212.87919140625002 23.26 212.15319140625002 23.48L213.83619140625 27.0H212.67019140625L211.13019140625 23.59H209.84319140625V27.0ZM209.84319140625 22.698999999999998H211.33919140625Q211.95519140625 22.698999999999998 212.32919140625 22.3085Q212.70319140625 21.918 212.70319140625 21.28Q212.70319140625 20.631 212.32919140625 20.246000000000002Q211.95519140625 19.861 211.33919140625 19.861H209.84319140625Z M218.37919140625 27.0 216.31119140625 18.97H217.33419140625L218.69819140625 24.426000000000002Q218.84119140625 24.998 218.94019140625 25.4875Q219.03919140624998 25.977 219.08319140625 26.23Q219.12719140625 25.977 219.22069140625 25.4875Q219.31419140625 24.998 219.45719140625 24.426000000000002L220.81019140625 18.97H221.81119140625L219.73219140625 27.0Z M224.78119140625 27.0V18.97H229.40119140625V19.872H225.76019140625002V22.358H229.01619140625002V23.249H225.76019140625002V26.098H229.40119140625V27.0Z M232.61319140625 27.0V18.97H235.09919140625Q235.81419140625 18.97 236.35319140625 19.261499999999998Q236.89219140625 19.553 237.18919140625 20.07Q237.48619140625 20.587 237.48619140625 21.28Q237.48619140625 22.094 237.06269140625 22.677Q236.63919140625 23.26 235.91319140625 23.48L237.59619140625 27.0H236.43019140625L234.89019140624998 23.59H233.60319140625V27.0ZM233.60319140625 22.698999999999998H235.09919140625Q235.71519140625 22.698999999999998 236.08919140625 22.3085Q236.46319140625 21.918 236.46319140625 21.28Q236.46319140625 20.631 236.08919140625 20.246000000000002Q235.71519140625 19.861 235.09919140625 19.861H233.60319140625Z" fill="#85888E"/><path d="M250.583203125 28.0V17.45068359375H257.33759765625V19.043701171875H252.473583984375V22.20849609375H256.863232421875V23.7802734375H252.473583984375V28.0Z M262.456494140625 28.162841796875Q261.30244140625 28.162841796875 260.45283203125 27.6495361328125Q259.60322265625 27.13623046875 259.1394775390625 26.2193603515625Q258.675732421875 25.302490234375 258.675732421875 24.084716796875Q258.675732421875 22.852783203125 259.1394775390625 21.9288330078125Q259.60322265625 21.0048828125 260.45283203125 20.4951171875Q261.30244140625 19.9853515625 262.456494140625 19.9853515625Q263.617626953125 19.9853515625 264.467236328125 20.4951171875Q265.316845703125 21.0048828125 265.7805908203125 21.9288330078125Q266.2443359375 22.852783203125 266.2443359375 24.084716796875Q266.2443359375 25.302490234375 265.7805908203125 26.2193603515625Q265.316845703125 27.13623046875 264.467236328125 27.6495361328125Q263.617626953125 28.162841796875 262.456494140625 28.162841796875ZM262.456494140625 26.6689453125Q263.10078125 26.6689453125 263.5291259765625 26.322021484375Q263.957470703125 25.97509765625 264.1663330078125 25.387451171875Q264.3751953125 24.7998046875 264.3751953125 24.07763671875Q264.3751953125 23.348388671875 264.1663330078125 22.7607421875Q263.957470703125 22.173095703125 263.5291259765625 21.826171875Q263.10078125 21.479248046875 262.456494140625 21.479248046875Q261.81220703125 21.479248046875 261.3909423828125 21.826171875Q260.969677734375 22.173095703125 260.7608154296875 22.7572021484375Q260.551953125 23.34130859375 260.551953125 24.07763671875Q260.551953125 24.7998046875 260.7608154296875 25.387451171875Q260.969677734375 25.97509765625 261.3909423828125 26.322021484375Q261.81220703125 26.6689453125 262.456494140625 26.6689453125Z M269.692333984375 17.45068359375V28.0H267.851513671875V17.45068359375Z M271.646435546875 28.0V20.08447265625H273.487255859375V28.0ZM272.566845703125 18.9658203125Q272.127880859375 18.9658203125 271.8128173828125 18.66845703125Q271.49775390625 18.37109375 271.49775390625 17.96044921875Q271.49775390625 17.53564453125 271.8128173828125 17.2418212890625Q272.127880859375 16.947998046875 272.566845703125 16.947998046875Q273.012890625 16.947998046875 273.3279541015625 17.2418212890625Q273.643017578125 17.53564453125 273.643017578125 17.953369140625Q273.643017578125 18.37109375 273.3279541015625 18.66845703125Q273.012890625 18.9658203125 272.566845703125 18.9658203125Z M277.650341796875 28.162841796875Q276.899853515625 28.162841796875 276.298046875 27.8902587890625Q275.696240234375 27.61767578125 275.34931640625 27.086669921875Q275.002392578125 26.5556640625 275.002392578125 25.77685546875Q275.002392578125 25.104248046875 275.2537353515625 24.665283203125Q275.505078125 24.226318359375 275.9334228515625 23.96435546875Q276.361767578125 23.702392578125 276.899853515625 23.56787109375Q277.437939453125 23.433349609375 278.018505859375 23.376708984375Q278.7052734375 23.298828125 279.137158203125 23.2421875Q279.56904296875 23.185546875 279.7708251953125 23.05810546875Q279.972607421875 22.9306640625 279.972607421875 22.66162109375V22.626220703125Q279.972607421875 22.23681640625 279.816845703125 21.9642333984375Q279.661083984375 21.691650390625 279.3531005859375 21.5465087890625Q279.0451171875 21.4013671875 278.5919921875 21.4013671875Q278.131787109375 21.4013671875 277.7954833984375 21.54296875Q277.4591796875 21.6845703125 277.24677734375 21.9111328125Q277.034375 22.1376953125 276.93525390625 22.399658203125L275.228955078125 22.052734375Q275.46259765625 21.351806640625 275.951123046875 20.8951416015625Q276.4396484375 20.4384765625 277.1157958984375 20.2119140625Q277.791943359375 19.9853515625 278.584912109375 19.9853515625Q279.14423828125 19.9853515625 279.7141845703125 20.1163330078125Q280.284130859375 20.247314453125 280.75849609375 20.558837890625Q281.232861328125 20.870361328125 281.52314453125 21.394287109375Q281.813427734375 21.918212890625 281.813427734375 22.711181640625V28.0H280.05048828125V26.90966796875H279.9796875Q279.802685546875 27.242431640625 279.4947021484375 27.5291748046875Q279.18671875 27.81591796875 278.7300537109375 27.9893798828125Q278.273388671875 28.162841796875 277.650341796875 28.162841796875ZM278.12470703125 26.79638671875Q278.698193359375 26.79638671875 279.1123779296875 26.56982421875Q279.5265625 26.34326171875 279.7566650390625 25.9715576171875Q279.986767578125 25.599853515625 279.986767578125 25.160888671875V24.226318359375Q279.8947265625 24.297119140625 279.6787841796875 24.36083984375Q279.462841796875 24.424560546875 279.1973388671875 24.47412109375Q278.9318359375 24.523681640625 278.6734130859375 24.55908203125Q278.414990234375 24.594482421875 278.23798828125 24.61572265625Q277.82734375 24.67236328125 277.494580078125 24.7998046875Q277.16181640625 24.92724609375 276.9741943359375 25.1573486328125Q276.786572265625 25.387451171875 276.786572265625 25.755615234375Q276.786572265625 26.095458984375 276.9600341796875 26.3255615234375Q277.13349609375 26.5556640625 277.4343994140625 26.676025390625Q277.735302734375 26.79638671875 278.12470703125 26.79638671875Z M290.521923828125 27.376953125V20.25439453125H292.122021484375V27.376953125ZM287.7677734375 24.566162109375V23.05810546875H294.883251953125V24.566162109375Z M300.915478515625 28.0V17.45068359375H304.85908203125Q306.069775390625 17.45068359375 306.89814453125 17.90380859375Q307.726513671875 18.35693359375 308.151318359375 19.1463623046875Q308.576123046875 19.935791015625 308.576123046875 20.941162109375Q308.576123046875 21.95361328125 308.1477783203125 22.739501953125Q307.71943359375 23.525390625 306.883984375 23.978515625Q306.04853515625 24.431640625 304.83076171875 24.431640625H302.218212890625V22.8740234375H304.582958984375Q305.298046875 22.8740234375 305.7547119140625 22.626220703125Q306.211376953125 22.37841796875 306.4273193359375 21.939453125Q306.64326171875 21.50048828125 306.64326171875 20.941162109375Q306.64326171875 20.3818359375 306.4273193359375 19.949951171875Q306.211376953125 19.51806640625 305.751171875 19.27734375Q305.290966796875 19.03662109375 304.568798828125 19.03662109375H302.805859375V28.0Z M312.39228515625 28.162841796875Q311.641796875 28.162841796875 311.039990234375 27.8902587890625Q310.43818359375 27.61767578125 310.091259765625 27.086669921875Q309.7443359375 26.5556640625 309.7443359375 25.77685546875Q309.7443359375 25.104248046875 309.9956787109375 24.665283203125Q310.247021484375 24.226318359375 310.6753662109375 23.96435546875Q311.1037109375 23.702392578125 311.641796875 23.56787109375Q312.1798828125 23.433349609375 312.76044921875 23.376708984375Q313.447216796875 23.298828125 313.8791015625 23.2421875Q314.310986328125 23.185546875 314.5127685546875 23.05810546875Q314.71455078125 22.9306640625 314.71455078125 22.66162109375V22.626220703125Q314.71455078125 22.23681640625 314.5587890625 21.9642333984375Q314.40302734375 21.691650390625 314.0950439453125 21.5465087890625Q313.787060546875 21.4013671875 313.333935546875 21.4013671875Q312.87373046875 21.4013671875 312.5374267578125 21.54296875Q312.201123046875 21.6845703125 311.988720703125 21.9111328125Q311.776318359375 22.1376953125 311.677197265625 22.399658203125L309.9708984375 22.052734375Q310.204541015625 21.351806640625 310.69306640625 20.8951416015625Q311.181591796875 20.4384765625 311.8577392578125 20.2119140625Q312.53388671875 19.9853515625 313.32685546875 19.9853515625Q313.886181640625 19.9853515625 314.4561279296875 20.1163330078125Q315.02607421875 20.247314453125 315.500439453125 20.558837890625Q315.9748046875 20.870361328125 316.265087890625 21.394287109375Q316.55537109375 21.918212890625 316.55537109375 22.711181640625V28.0H314.792431640625V26.90966796875H314.721630859375Q314.54462890625 27.242431640625 314.2366455078125 27.5291748046875Q313.928662109375 27.81591796875 313.4719970703125 27.9893798828125Q313.01533203125 28.162841796875 312.39228515625 28.162841796875ZM312.866650390625 26.79638671875Q313.44013671875 26.79638671875 313.8543212890625 26.56982421875Q314.268505859375 26.34326171875 314.4986083984375 25.9715576171875Q314.7287109375 25.599853515625 314.7287109375 25.160888671875V24.226318359375Q314.636669921875 24.297119140625 314.4207275390625 24.36083984375Q314.20478515625 24.424560546875 313.9392822265625 24.47412109375Q313.673779296875 24.523681640625 313.4153564453125 24.55908203125Q313.15693359375 24.594482421875 312.979931640625 24.61572265625Q312.569287109375 24.67236328125 312.2365234375 24.7998046875Q311.903759765625 24.92724609375 311.7161376953125 25.1573486328125Q311.528515625 25.387451171875 311.528515625 25.755615234375Q311.528515625 26.095458984375 311.7019775390625 26.3255615234375Q311.875439453125 26.5556640625 312.1763427734375 26.676025390625Q312.47724609375 26.79638671875 312.866650390625 26.79638671875Z M318.50947265625 30.95947265625V20.08447265625H320.3078125V21.394287109375H320.428173828125Q320.569775390625 21.111083984375 320.83173828125 20.785400390625Q321.093701171875 20.459716796875 321.5432861328125 20.2225341796875Q321.99287109375 19.9853515625 322.693798828125 19.9853515625Q323.614208984375 19.9853515625 324.350537109375 20.45263671875Q325.086865234375 20.919921875 325.5222900390625 21.8297119140625Q325.95771484375 22.739501953125 325.95771484375 24.056396484375Q325.95771484375 25.359130859375 325.53291015625 26.2724609375Q325.10810546875 27.185791015625 324.3682373046875 27.6636962890625Q323.628369140625 28.1416015625 322.68671875 28.1416015625Q322.014111328125 28.1416015625 321.560986328125 27.9114990234375Q321.107861328125 27.681396484375 320.838818359375 27.355712890625Q320.569775390625 27.030029296875 320.428173828125 26.746826171875H320.35029296875V30.95947265625ZM322.19111328125 26.62646484375Q322.807080078125 26.62646484375 323.2248046875 26.2901611328125Q323.642529296875 25.953857421875 323.854931640625 25.3697509765625Q324.067333984375 24.78564453125 324.067333984375 24.04931640625Q324.067333984375 23.31298828125 323.8584716796875 22.7359619140625Q323.649609375 22.158935546875 323.231884765625 21.8297119140625Q322.81416015625 21.50048828125 322.19111328125 21.50048828125Q321.5822265625 21.50048828125 321.164501953125 21.819091796875Q320.74677734375 22.1376953125 320.5308349609375 22.7076416015625Q320.314892578125 23.277587890625 320.314892578125 24.04931640625Q320.314892578125 24.821044921875 320.5308349609375 25.401611328125Q320.74677734375 25.982177734375 321.1680419921875 26.3043212890625Q321.589306640625 26.62646484375 322.19111328125 26.62646484375Z M331.05537109375 28.162841796875Q329.858837890625 28.162841796875 328.9986083984375 27.66015625Q328.13837890625 27.157470703125 327.6746337890625 26.244140625Q327.210888671875 25.330810546875 327.210888671875 24.091796875Q327.210888671875 22.866943359375 327.6675537109375 21.946533203125Q328.12421875 21.026123046875 328.9632080078125 20.5057373046875Q329.802197265625 19.9853515625 330.935009765625 19.9853515625Q331.657177734375 19.9853515625 332.3120849609375 20.218994140625Q332.9669921875 20.45263671875 333.4732177734375 20.941162109375Q333.979443359375 21.4296875 334.2661865234375 22.1837158203125Q334.5529296875 22.937744140625 334.5529296875 23.978515625V24.55908203125H328.08173828125V23.305908203125H333.639599609375L332.775830078125 23.674072265625Q332.775830078125 23.008544921875 332.5705078125 22.5023193359375Q332.365185546875 21.99609375 331.9580810546875 21.712890625Q331.5509765625 21.4296875 330.94208984375 21.4296875Q330.333203125 21.4296875 329.9083984375 21.7164306640625Q329.48359375 22.003173828125 329.2605712890625 22.4810791015625Q329.037548828125 22.958984375 329.037548828125 23.546630859375V24.410400390625Q329.037548828125 25.160888671875 329.292431640625 25.677734375Q329.547314453125 26.194580078125 330.00751953125 26.45654296875Q330.467724609375 26.718505859375 331.076611328125 26.718505859375Q331.48017578125 26.718505859375 331.8093994140625 26.6016845703125Q332.138623046875 26.48486328125 332.379345703125 26.2547607421875Q332.620068359375 26.024658203125 332.7404296875 25.69189453125L334.432568359375 26.038818359375Q334.24140625 26.676025390625 333.781201171875 27.1539306640625Q333.32099609375 27.6318359375 332.6306884765625 27.8973388671875Q331.940380859375 28.162841796875 331.05537109375 28.162841796875Z M336.131787109375 28.0V20.08447265625H337.915966796875V21.408447265625H338.000927734375Q338.213330078125 20.7216796875 338.7443359375 20.3499755859375Q339.275341796875 19.978271484375 339.955029296875 19.978271484375Q340.110791015625 19.978271484375 340.301953125 19.992431640625Q340.493115234375 20.006591796875 340.62763671875 20.02783203125V21.719970703125Q340.51435546875 21.6845703125 340.25947265625 21.65625Q340.00458984375 21.6279296875 339.756787109375 21.6279296875Q339.247021484375 21.6279296875 338.8399169921875 21.847412109375Q338.4328125 22.06689453125 338.2027099609375 22.4527587890625Q337.972607421875 22.838623046875 337.972607421875 23.34130859375V28.0Z" fill="#ECEAE3"/><rect x="372.91083984374995" y="0" width="95.59259765625" height="46" rx="10" fill="#141619" stroke="#33373D"/><path d="M393.88083984375 27.11Q392.72583984374995 27.11 392.0658398437499 26.461Q391.40583984374996 25.812 391.40583984374996 24.69H392.39583984374997Q392.39583984374997 25.427 392.78633984374994 25.8285Q393.17683984375 26.23 393.88083984375 26.23Q394.58483984374993 26.23 394.9753398437499 25.8285Q395.36583984374994 25.427 395.36583984374994 24.69V19.872H393.4408398437499V18.97H396.35583984374995V24.69Q396.35583984374995 25.812 395.69033984374994 26.461Q395.02483984374993 27.11 393.88083984375 27.11Z M399.38083984375 27.0 401.47083984374996 18.97H402.80183984375L404.88083984375 27.0H403.87983984374995L403.35183984375 24.866H400.92083984374995L400.39283984375 27.0ZM401.11883984375 24.03H403.14283984375L402.52683984375 21.555Q402.35083984374995 20.851 402.25183984374996 20.378Q402.15283984375 19.905 402.13083984375 19.762Q402.10883984375 19.905 402.00983984375 20.378Q401.91083984374995 20.851 401.73483984374997 21.544Z M409.3688398437499 27.0 407.30083984374994 18.97H408.3238398437499L409.68783984374994 24.426000000000002Q409.8308398437499 24.998 409.92983984374996 25.4875Q410.02883984374995 25.977 410.07283984374993 26.23Q410.1168398437499 25.977 410.2103398437499 25.4875Q410.3038398437499 24.998 410.44683984374996 24.426000000000002L411.7998398437499 18.97H412.80083984374994L410.72183984374993 27.0Z M415.22083984374996 27.0 417.31083984374993 18.97H418.64183984374995L420.72083984374996 27.0H419.7198398437499L419.19183984374996 24.866H416.7608398437499L416.23283984374996 27.0ZM416.95883984374996 24.03H418.98283984374996L418.36683984375 21.555Q418.1908398437499 20.851 418.09183984374994 20.378Q417.99283984374995 19.905 417.97083984374996 19.762Q417.94883984374997 19.905 417.8498398437499 20.378Q417.75083984374993 20.851 417.57483984374994 21.544Z" fill="#85888E"/><path d="M433.53957031249996 28.0V26.640625L437.19997070312496 23.036865234375Q437.71681640624996 22.505859375 438.06728027343746 22.09521484375Q438.41774414062496 21.6845703125 438.59828613281246 21.2987060546875Q438.77882812499996 20.912841796875 438.77882812499996 20.459716796875Q438.77882812499996 19.964111328125 438.54872558593746 19.60302734375Q438.31862304687496 19.241943359375 437.92567871093746 19.0472412109375Q437.53273437499996 18.8525390625 437.03004882812496 18.8525390625Q436.49904296874996 18.8525390625 436.10609863281246 19.06494140625Q435.71315429687496 19.27734375 435.50075195312496 19.6702880859375Q435.28834960937496 20.063232421875 435.28834960937496 20.6083984375H433.48292968749996Q433.48292968749996 19.610107421875 433.93959472656246 18.86669921875Q434.39625976562496 18.123291015625 435.19984863281246 17.7161865234375Q436.00343749999996 17.30908203125 437.05128906249996 17.30908203125Q438.10622070312496 17.30908203125 438.90626953124996 17.70556640625Q439.70631835937496 18.10205078125 440.15236328124996 18.7923583984375Q440.59840820312496 19.482666015625 440.59840820312496 20.36767578125Q440.59840820312496 20.955322265625 440.37892578124996 21.5146484375Q440.15944335937496 22.073974609375 439.59303710937496 22.7784423828125Q439.02663085937496 23.48291015625 437.99293945312496 24.47412109375L436.15919921874996 26.34326171875V26.421142578125H440.75416992187496V28.0Z M446.00050781249996 28.1416015625Q444.96681640624996 28.1416015625 444.15614746093746 27.7557373046875Q443.34547851562496 27.369873046875 442.87111328124996 26.690185546875Q442.39674804687496 26.010498046875 442.36842773437496 25.1396484375H444.20924804687496Q444.23048828124996 25.571533203125 444.47829101562496 25.9007568359375Q444.72609374999996 26.22998046875 445.12257812499996 26.4176025390625Q445.51906249999996 26.605224609375 446.00050781249996 26.605224609375Q446.56691406249996 26.605224609375 447.00233886718746 26.3468017578125Q447.43776367187496 26.08837890625 447.68910644531246 25.6317138671875Q447.94044921874996 25.175048828125 447.94044921874996 24.580322265625Q447.94044921874996 23.978515625 447.68202636718746 23.51123046875Q447.42360351562496 23.0439453125 446.97401855468746 22.7784423828125Q446.52443359374996 22.512939453125 445.94386718749996 22.512939453125Q445.46242187499996 22.512939453125 445.00575683593746 22.6934814453125Q444.54909179687496 22.8740234375 444.28004882812496 23.164306640625L442.56666992187496 22.88818359375L443.11891601562496 17.45068359375H449.22194335937496V19.03662109375H444.68361328124996L444.38624999999996 21.84033203125H444.44289062499996Q444.74025390624996 21.493408203125 445.27479980468746 21.2703857421875Q445.80934570312496 21.04736328125 446.44655273437496 21.04736328125Q447.16164062499996 21.04736328125 447.77052734374996 21.3057861328125Q448.37941406249996 21.564208984375 448.82899902343746 22.0350341796875Q449.27858398437496 22.505859375 449.52638671874996 23.14306640625Q449.77418945312496 23.7802734375 449.77418945312496 24.537841796875Q449.77418945312496 25.585693359375 449.29274414062496 26.3963623046875Q448.81129882812496 27.20703125 447.96168945312496 27.67431640625Q447.11208007812496 28.1416015625 446.00050781249996 28.1416015625Z" fill="#ECEAE3"/><rect x="482.50343749999996" y="0" width="128.4009375" height="46" rx="10" fill="#141619" stroke="#33373D"/><path d="M501.76843749999995 27.0V18.97H502.75843749999996V26.098H506.38843749999995V27.0Z M509.57843749999995 27.0V26.098H511.21743749999996V19.872H509.57843749999995V18.97H513.8684375V19.872H512.2294375V26.098H513.8684375V27.0Z M519.6874375 27.11Q518.9614375 27.11 518.4279375 26.835Q517.8944375 26.56 517.6029374999999 26.0375Q517.3114374999999 25.515 517.3114374999999 24.8V21.17Q517.3114374999999 20.444 517.6029374999999 19.927Q517.8944375 19.41 518.4279375 19.134999999999998Q518.9614375 18.86 519.6874375 18.86Q520.4134375 18.86 520.9414374999999 19.1405Q521.4694374999999 19.421 521.7554375 19.938Q522.0414374999999 20.455 522.0414374999999 21.17H521.0514374999999Q521.0514374999999 20.488 520.6939375 20.119500000000002Q520.3364375 19.751 519.6874375 19.751Q519.0384375 19.751 518.6699375 20.114Q518.3014374999999 20.477 518.3014374999999 21.159V24.8Q518.3014374999999 25.482 518.6699375 25.8505Q519.0384375 26.219 519.6874375 26.219Q520.3364375 26.219 520.6939375 25.8505Q521.0514374999999 25.482 521.0514374999999 24.8H522.0414374999999Q522.0414374999999 25.504 521.7554375 26.0265Q521.4694374999999 26.549 520.9414374999999 26.8295Q520.4134375 27.11 519.6874375 27.11Z M525.3634375 27.0V18.97H529.9834375V19.872H526.3424375V22.358H529.5984375V23.249H526.3424375V26.098H529.9834375V27.0Z M533.1734375 27.0V18.97H534.4934374999999L536.9464375 25.845Q536.9244375 25.57 536.8969374999999 25.1685Q536.8694375 24.767 536.8529375 24.3215Q536.8364375 23.876 536.8364375 23.48V18.97H537.7934375V27.0H536.4734374999999L534.0314374999999 20.125Q534.0534375 20.389 534.0754374999999 20.7905Q534.0974375 21.192 534.1139375 21.6375Q534.1304375 22.083 534.1304375 22.490000000000002V27.0Z M543.4474375 27.11Q542.6554375 27.11 542.0889374999999 26.846Q541.5224374999999 26.582 541.2144374999999 26.087Q540.9064374999999 25.592 540.8954375 24.91H541.8854375Q541.8854375 25.515 542.2979375 25.867Q542.7104374999999 26.219 543.4474375 26.219Q544.1404375 26.219 544.5309374999999 25.878Q544.9214374999999 25.537 544.9214374999999 24.932Q544.9214374999999 24.448 544.6629375 24.085Q544.4044375 23.722 543.9204374999999 23.579L542.8314374999999 23.238Q542.0064375 22.985 541.5609374999999 22.391Q541.1154374999999 21.797 541.1154374999999 20.994Q541.1154374999999 20.345 541.4069374999999 19.866500000000002Q541.6984375 19.388 542.2264375 19.1185Q542.7544374999999 18.849 543.4694374999999 18.849Q544.5254375 18.849 545.1634374999999 19.4375Q545.8014374999999 20.026 545.8124374999999 21.005000000000003H544.8224375Q544.8224375 20.411 544.4649374999999 20.0755Q544.1074375 19.740000000000002 543.4584375 19.740000000000002Q542.8204374999999 19.740000000000002 542.4629375 20.048000000000002Q542.1054374999999 20.356 542.1054374999999 20.906Q542.1054374999999 21.401 542.3694374999999 21.764000000000003Q542.6334374999999 22.127000000000002 543.1284374999999 22.281L544.2284374999999 22.633Q545.0314374999999 22.886 545.4714374999999 23.491Q545.9114374999999 24.096 545.9114374999999 24.91Q545.9114374999999 25.57 545.6034374999999 26.064999999999998Q545.2954374999999 26.56 544.7399375 26.835Q544.1844375 27.11 543.4474375 27.11Z M549.1234375 27.0V18.97H553.7434375V19.872H550.1024375V22.358H553.3584375V23.249H550.1024375V26.098H553.7434375V27.0Z" fill="#85888E"/><path d="M567.00544921875 28.0V17.45068359375H569.851640625L571.855302734375 22.895263671875Q571.96150390625 23.19970703125 572.0924853515625 23.6776123046875Q572.223466796875 24.155517578125 572.3615283203125 24.707763671875Q572.49958984375 25.260009765625 572.6234912109375 25.7874755859375Q572.747392578125 26.31494140625 572.832353515625 26.718505859375H572.450029296875Q572.534990234375 26.322021484375 572.6588916015625 25.8016357421875Q572.78279296875 25.28125 572.9208544921875 24.7254638671875Q573.058916015625 24.169677734375 573.1898974609375 23.688232421875Q573.32087890625 23.206787109375 573.42 22.895263671875L575.402421875 17.45068359375H578.255693359375V28.0H576.372392578125V22.67578125Q576.372392578125 22.3359375 576.37947265625 21.8544921875Q576.386552734375 21.373046875 576.400712890625 20.82080078125Q576.414873046875 20.2685546875 576.429033203125 19.7056884765625Q576.443193359375 19.142822265625 576.443193359375 18.633056640625H576.57771484375Q576.43611328125 19.1923828125 576.2697314453125 19.7764892578125Q576.103349609375 20.360595703125 575.9405078125 20.9093017578125Q575.777666015625 21.4580078125 575.6325244140625 21.918212890625Q575.4873828125 22.37841796875 575.381181640625 22.67578125L573.43416015625 28.0H571.826982421875L569.851640625 22.67578125Q569.745439453125 22.37841796875 569.6002978515625 21.9288330078125Q569.45515625 21.479248046875 569.2887744140625 20.93408203125Q569.122392578125 20.388916015625 568.9560107421875 19.7977294921875Q568.78962890625 19.20654296875 568.626787109375 18.633056640625H568.782548828125Q568.78962890625 19.107421875 568.8037890625 19.6632080078125Q568.81794921875 20.218994140625 568.8285693359375 20.7783203125Q568.839189453125 21.337646484375 568.8498095703125 21.8297119140625Q568.8604296875 22.32177734375 568.8604296875 22.67578125V28.0Z M582.27009765625 17.45068359375V28.0H580.379716796875V17.45068359375Z M583.919755859375 19.043701171875V17.45068359375H592.316728515625V19.043701171875H589.06697265625V28.0H587.176591796875V19.043701171875Z" fill="#ECEAE3"/><rect x="624.904375" y="0" width="178.32369140625" height="46" rx="10" fill="#141619" stroke="#33373D"/><path d="M643.9163749999999 27.0V18.97H645.995375Q646.7763749999999 18.97 647.3428749999999 19.267Q647.909375 19.564 648.2228749999999 20.103Q648.5363749999999 20.642 648.5363749999999 21.379V24.58Q648.5363749999999 25.317 648.2228749999999 25.8615Q647.909375 26.406 647.3428749999999 26.703Q646.7763749999999 27.0 645.995375 27.0ZM644.9063749999999 26.12H645.995375Q646.721375 26.12 647.133875 25.713Q647.546375 25.306 647.546375 24.58V21.379Q647.546375 20.664 647.133875 20.257Q646.721375 19.85 645.995375 19.85H644.9063749999999Z M651.9243749999999 27.0V18.97H656.544375V19.872H652.9033749999999V22.358H656.159375V23.249H652.9033749999999V26.098H656.544375V27.0Z M659.7563749999999 27.0V18.97H662.341375Q663.089375 18.97 663.639375 19.261499999999998Q664.189375 19.553 664.4918749999999 20.081000000000003Q664.794375 20.609 664.794375 21.335Q664.794375 22.05 664.4918749999999 22.5835Q664.189375 23.117 663.639375 23.4085Q663.089375 23.7 662.341375 23.7H660.746375V27.0ZM660.746375 22.809H662.341375Q662.990375 22.809 663.3808750000001 22.4075Q663.771375 22.006 663.771375 21.335Q663.771375 20.653 663.3808750000001 20.256999999999998Q662.990375 19.861 662.341375 19.861H660.746375Z M667.764375 27.0V18.97H672.384375V19.872H668.7433749999999V22.358H671.999375V23.249H668.7433749999999V26.098H672.384375V27.0Z M675.5743749999999 27.0V18.97H676.8943749999999L679.3473749999999 25.845Q679.3253749999999 25.57 679.297875 25.1685Q679.270375 24.767 679.2538749999999 24.3215Q679.2373749999999 23.876 679.2373749999999 23.48V18.97H680.1943749999999V27.0H678.8743749999999L676.4323749999999 20.125Q676.4543749999999 20.389 676.476375 20.7905Q676.4983749999999 21.192 676.5148749999998 21.6375Q676.5313749999999 22.083 676.5313749999999 22.490000000000002V27.0Z M683.5163749999999 27.0V18.97H685.595375Q686.3763749999999 18.97 686.942875 19.267Q687.509375 19.564 687.822875 20.103Q688.1363749999999 20.642 688.1363749999999 21.379V24.58Q688.1363749999999 25.317 687.822875 25.8615Q687.509375 26.406 686.942875 26.703Q686.3763749999999 27.0 685.595375 27.0ZM684.5063749999999 26.12H685.595375Q686.321375 26.12 686.733875 25.713Q687.146375 25.306 687.146375 24.58V21.379Q687.146375 20.664 686.733875 20.257Q686.321375 19.85 685.595375 19.85H684.5063749999999Z M691.524375 27.0V18.97H696.144375V19.872H692.5033749999999V22.358H695.759375V23.249H692.5033749999999V26.098H696.144375V27.0Z M699.3343749999999 27.0V18.97H700.6543749999998L703.1073749999999 25.845Q703.0853749999999 25.57 703.057875 25.1685Q703.0303749999999 24.767 703.0138749999999 24.3215Q702.9973749999999 23.876 702.9973749999999 23.48V18.97H703.9543749999999V27.0H702.6343749999999L700.1923749999999 20.125Q700.2143749999999 20.389 700.236375 20.7905Q700.2583749999999 21.192 700.2748749999998 21.6375Q700.2913749999999 22.083 700.2913749999999 22.490000000000002V27.0Z M709.608375 27.11Q708.882375 27.11 708.348875 26.835Q707.815375 26.56 707.523875 26.0375Q707.2323749999999 25.515 707.2323749999999 24.8V21.17Q707.2323749999999 20.444 707.523875 19.927Q707.815375 19.41 708.348875 19.134999999999998Q708.882375 18.86 709.608375 18.86Q710.334375 18.86 710.8623749999999 19.1405Q711.390375 19.421 711.676375 19.938Q711.962375 20.455 711.962375 21.17H710.9723749999999Q710.9723749999999 20.488 710.614875 20.119500000000002Q710.257375 19.751 709.608375 19.751Q708.959375 19.751 708.590875 20.114Q708.2223749999999 20.477 708.2223749999999 21.159V24.8Q708.2223749999999 25.482 708.590875 25.8505Q708.959375 26.219 709.608375 26.219Q710.257375 26.219 710.614875 25.8505Q710.9723749999999 25.482 710.9723749999999 24.8H711.962375Q711.962375 25.504 711.676375 26.0265Q711.390375 26.549 710.8623749999999 26.8295Q710.334375 27.11 709.608375 27.11Z M715.3393749999999 27.0V26.098H716.9783749999999V19.872H715.3393749999999V18.97H719.629375V19.872H717.990375V26.098H719.629375V27.0Z M723.2043749999999 27.0V18.97H727.8243749999999V19.872H724.1833749999998V22.358H727.4393749999999V23.249H724.1833749999998V26.098H727.8243749999999V27.0Z M733.368375 27.11Q732.576375 27.11 732.009875 26.846Q731.443375 26.582 731.135375 26.087Q730.827375 25.592 730.816375 24.91H731.806375Q731.806375 25.515 732.218875 25.867Q732.6313749999999 26.219 733.368375 26.219Q734.061375 26.219 734.451875 25.878Q734.842375 25.537 734.842375 24.932Q734.842375 24.448 734.583875 24.085Q734.325375 23.722 733.841375 23.579L732.7523749999999 23.238Q731.927375 22.985 731.481875 22.391Q731.0363749999999 21.797 731.0363749999999 20.994Q731.0363749999999 20.345 731.327875 19.866500000000002Q731.619375 19.388 732.147375 19.1185Q732.6753749999999 18.849 733.390375 18.849Q734.446375 18.849 735.0843749999999 19.4375Q735.7223749999999 20.026 735.7333749999999 21.005000000000003H734.743375Q734.743375 20.411 734.3858749999999 20.0755Q734.028375 19.740000000000002 733.379375 19.740000000000002Q732.741375 19.740000000000002 732.383875 20.048000000000002Q732.0263749999999 20.356 732.0263749999999 20.906Q732.0263749999999 21.401 732.2903749999999 21.764000000000003Q732.5543749999999 22.127000000000002 733.0493749999999 22.281L734.149375 22.633Q734.952375 22.886 735.3923749999999 23.491Q735.832375 24.096 735.832375 24.91Q735.832375 25.57 735.524375 26.064999999999998Q735.216375 26.56 734.660875 26.835Q734.105375 27.11 733.368375 27.11Z" fill="#85888E"/><path d="M749.0063867187499 28.0V17.45068359375H751.1445703124999L754.7908105468749 23.263427734375Q755.0173730468749 23.62451171875 755.2722558593749 24.0811767578125Q755.5271386718749 24.537841796875 755.8032617187499 25.1007080078125Q756.0793847656249 25.66357421875 756.3484277343749 26.350341796875H756.1360253906249Q756.0864648437499 25.755615234375 756.0475244140624 25.1290283203125Q756.0085839843749 24.50244140625 755.9908837890624 23.9395751953125Q755.9731835937499 23.376708984375 755.9731835937499 22.9873046875V17.45068359375H757.8918847656249V28.0H755.7466210937499L752.4543847656249 22.767822265625Q752.1428613281249 22.26513671875 751.8667382812499 21.776611328125Q751.5906152343749 21.2880859375 751.2720117187499 20.672119140625Q750.9534082031249 20.05615234375 750.5002832031249 19.185302734375H750.7693261718749Q750.8118066406249 19.95703125 750.8472070312499 20.6473388671875Q750.8826074218749 21.337646484375 750.9073876953124 21.8828125Q750.9321679687499 22.427978515625 750.9321679687499 22.7607421875V28.0Z M763.3647851562499 28.162841796875Q762.2107324218749 28.162841796875 761.3611230468749 27.6495361328125Q760.5115136718749 27.13623046875 760.0477685546874 26.2193603515625Q759.5840234374999 25.302490234375 759.5840234374999 24.084716796875Q759.5840234374999 22.852783203125 760.0477685546874 21.9288330078125Q760.5115136718749 21.0048828125 761.3611230468749 20.4951171875Q762.2107324218749 19.9853515625 763.3647851562499 19.9853515625Q764.5259179687499 19.9853515625 765.3755273437499 20.4951171875Q766.2251367187499 21.0048828125 766.6888818359374 21.9288330078125Q767.1526269531249 22.852783203125 767.1526269531249 24.084716796875Q767.1526269531249 25.302490234375 766.6888818359374 26.2193603515625Q766.2251367187499 27.13623046875 765.3755273437499 27.6495361328125Q764.5259179687499 28.162841796875 763.3647851562499 28.162841796875ZM763.3647851562499 26.6689453125Q764.0090722656249 26.6689453125 764.4374169921874 26.322021484375Q764.8657617187499 25.97509765625 765.0746240234374 25.387451171875Q765.2834863281249 24.7998046875 765.2834863281249 24.07763671875Q765.2834863281249 23.348388671875 765.0746240234374 22.7607421875Q764.8657617187499 22.173095703125 764.4374169921874 21.826171875Q764.0090722656249 21.479248046875 763.3647851562499 21.479248046875Q762.7204980468749 21.479248046875 762.2992333984374 21.826171875Q761.8779687499999 22.173095703125 761.6691064453124 22.7572021484375Q761.4602441406249 23.34130859375 761.4602441406249 24.07763671875Q761.4602441406249 24.7998046875 761.6691064453124 25.387451171875Q761.8779687499999 25.97509765625 762.2992333984374 26.322021484375Q762.7204980468749 26.6689453125 763.3647851562499 26.6689453125Z M770.6006249999999 23.362548828125V28.0H768.7598046874999V20.08447265625H770.5015039062499L770.5298242187499 22.03857421875H770.3811425781249Q770.7139062499999 21.011962890625 771.3581933593749 20.4986572265625Q772.0024804687499 19.9853515625 772.9724511718749 19.9853515625Q773.7866601562499 19.9853515625 774.3955468749999 20.332275390625Q775.0044335937499 20.67919921875 775.3407373046874 21.3447265625Q775.6770410156249 22.01025390625 775.6770410156249 22.966064453125V28.0H773.8362207031249V23.249267578125Q773.8362207031249 22.456298828125 773.4255761718749 22.003173828125Q773.0149316406249 21.550048828125 772.2927636718749 21.550048828125Q771.8042382812499 21.550048828125 771.4219140624999 21.762451171875Q771.0395898437499 21.974853515625 770.8201074218749 22.3819580078125Q770.6006249999999 22.7890625 770.6006249999999 23.362548828125Z M781.1287011718749 28.162841796875Q779.9321679687499 28.162841796875 779.0719384765624 27.66015625Q778.2117089843749 27.157470703125 777.7479638671874 26.244140625Q777.2842187499999 25.330810546875 777.2842187499999 24.091796875Q777.2842187499999 22.866943359375 777.7408837890624 21.946533203125Q778.1975488281249 21.026123046875 779.0365380859374 20.5057373046875Q779.8755273437499 19.9853515625 781.0083398437499 19.9853515625Q781.7305078124999 19.9853515625 782.3854150390624 20.218994140625Q783.0403222656249 20.45263671875 783.5465478515624 20.941162109375Q784.0527734374999 21.4296875 784.3395166015624 22.1837158203125Q784.6262597656249 22.937744140625 784.6262597656249 23.978515625V24.55908203125H778.1550683593749V23.305908203125H783.7129296874999L782.8491601562499 23.674072265625Q782.8491601562499 23.008544921875 782.6438378906249 22.5023193359375Q782.4385156249999 21.99609375 782.0314111328124 21.712890625Q781.6243066406249 21.4296875 781.0154199218749 21.4296875Q780.4065332031249 21.4296875 779.9817285156249 21.7164306640625Q779.5569238281249 22.003173828125 779.3339013671874 22.4810791015625Q779.1108789062499 22.958984375 779.1108789062499 23.546630859375V24.410400390625Q779.1108789062499 25.160888671875 779.3657617187499 25.677734375Q779.6206445312499 26.194580078125 780.0808496093749 26.45654296875Q780.5410546874999 26.718505859375 781.1499414062499 26.718505859375Q781.5535058593749 26.718505859375 781.8827294921874 26.6016845703125Q782.2119531249999 26.48486328125 782.4526757812499 26.2547607421875Q782.6933984374999 26.024658203125 782.8137597656249 25.69189453125L784.5058984374999 26.038818359375Q784.3147363281249 26.676025390625 783.8545312499999 27.1539306640625Q783.3943261718749 27.6318359375 782.7040185546874 27.8973388671875Q782.0137109374999 28.162841796875 781.1287011718749 28.162841796875Z" fill="#ECEAE3"/><rect x="817.2280664062499" y="0" width="146.64369140625" height="46" rx="10" fill="#141619" stroke="#33373D"/><path d="M836.2400664062499 27.0V18.97H838.3190664062499Q839.1000664062499 18.97 839.6665664062499 19.267Q840.2330664062499 19.564 840.5465664062499 20.103Q840.8600664062499 20.642 840.8600664062499 21.379V24.58Q840.8600664062499 25.317 840.5465664062499 25.8615Q840.2330664062499 26.406 839.6665664062499 26.703Q839.1000664062499 27.0 838.3190664062499 27.0ZM837.2300664062499 26.12H838.3190664062499Q839.0450664062499 26.12 839.45756640625 25.713Q839.87006640625 25.306 839.87006640625 24.58V21.379Q839.87006640625 20.664 839.45756640625 20.257Q839.0450664062499 19.85 838.3190664062499 19.85H837.2300664062499Z M843.6980664062498 27.0 845.7880664062499 18.97H847.1190664062499L849.1980664062498 27.0H848.1970664062499L847.6690664062498 24.866H845.2380664062499L844.7100664062499 27.0ZM845.4360664062499 24.03H847.4600664062499L846.8440664062499 21.555Q846.6680664062499 20.851 846.5690664062499 20.378Q846.4700664062499 19.905 846.4480664062498 19.762Q846.4260664062499 19.905 846.32706640625 20.378Q846.2280664062499 20.851 846.0520664062499 21.544Z M853.8730664062499 27.0V19.861H851.67306640625V18.959H857.06306640625V19.861H854.8630664062499V27.0Z M859.5380664062499 27.0 861.6280664062499 18.97H862.9590664062499L865.0380664062499 27.0H864.0370664062499L863.5090664062499 24.866H861.07806640625L860.5500664062499 27.0ZM861.2760664062499 24.03H863.3000664062499L862.6840664062499 21.555Q862.5080664062499 20.851 862.4090664062498 20.378Q862.3100664062499 19.905 862.2880664062499 19.762Q862.2660664062499 19.905 862.1670664062499 20.378Q862.06806640625 20.851 861.8920664062499 21.544Z M867.9310664062499 27.0V18.97H870.2080664062498Q871.3080664062498 18.97 871.9295664062499 19.52Q872.5510664062499 20.07 872.5510664062499 21.049Q872.5510664062499 21.599 872.3200664062499 22.006Q872.0890664062499 22.413 871.6655664062498 22.633000000000003Q871.2420664062498 22.853 870.6480664062499 22.842V22.677Q871.2860664062499 22.666 871.7535664062499 22.919Q872.2210664062499 23.172 872.4795664062499 23.645000000000003Q872.7380664062499 24.118000000000002 872.7380664062499 24.767Q872.7380664062499 25.449 872.45206640625 25.955Q872.1660664062499 26.461 871.6380664062499 26.7305Q871.1100664062499 27.0 870.3730664062499 27.0ZM868.8990664062499 26.109H870.2630664062499Q870.9560664062499 26.109 871.3575664062498 25.7405Q871.7590664062499 25.372 871.7590664062499 24.734Q871.7590664062499 24.074 871.3575664062498 23.6615Q870.9560664062499 23.249 870.2630664062499 23.249H868.8990664062499ZM868.8990664062499 22.391H870.1970664062499Q870.8350664062499 22.391 871.2035664062498 22.049999999999997Q871.5720664062499 21.709 871.5720664062499 21.126Q871.5720664062499 20.543 871.2090664062498 20.201999999999998Q870.8460664062499 19.861 870.2080664062498 19.861H868.8990664062499Z M875.3780664062499 27.0 877.4680664062499 18.97H878.79906640625L880.8780664062499 27.0H879.8770664062499L879.3490664062499 24.866H876.91806640625L876.39006640625 27.0ZM877.11606640625 24.03H879.14006640625L878.52406640625 21.555Q878.3480664062499 20.851 878.24906640625 20.378Q878.15006640625 19.905 878.1280664062499 19.762Q878.10606640625 19.905 878.00706640625 20.378Q877.90806640625 20.851 877.7320664062499 21.544Z M886.09206640625 27.11Q885.3000664062499 27.11 884.7335664062499 26.846Q884.1670664062499 26.582 883.8590664062499 26.087Q883.5510664062499 25.592 883.5400664062499 24.91H884.53006640625Q884.53006640625 25.515 884.9425664062499 25.867Q885.3550664062499 26.219 886.09206640625 26.219Q886.7850664062499 26.219 887.1755664062499 25.878Q887.5660664062499 25.537 887.5660664062499 24.932Q887.5660664062499 24.448 887.3075664062499 24.085Q887.04906640625 23.722 886.5650664062499 23.579L885.4760664062499 23.238Q884.6510664062499 22.985 884.2055664062499 22.391Q883.7600664062498 21.797 883.7600664062498 20.994Q883.7600664062498 20.345 884.0515664062499 19.866500000000002Q884.3430664062499 19.388 884.8710664062498 19.1185Q885.3990664062499 18.849 886.1140664062499 18.849Q887.1700664062499 18.849 887.80806640625 19.4375Q888.4460664062499 20.026 888.4570664062499 21.005000000000003H887.46706640625Q887.46706640625 20.411 887.10956640625 20.0755Q886.7520664062499 19.740000000000002 886.1030664062499 19.740000000000002Q885.4650664062499 19.740000000000002 885.1075664062498 20.048000000000002Q884.7500664062499 20.356 884.7500664062499 20.906Q884.7500664062499 21.401 885.0140664062499 21.764000000000003Q885.2780664062499 22.127000000000002 885.7730664062499 22.281L886.8730664062499 22.633Q887.6760664062499 22.886 888.11606640625 23.491Q888.5560664062499 24.096 888.5560664062499 24.91Q888.5560664062499 25.57 888.2480664062499 26.064999999999998Q887.9400664062499 26.56 887.3845664062499 26.835Q886.8290664062499 27.11 886.09206640625 27.11Z M891.7680664062499 27.0V18.97H896.3880664062499V19.872H892.7470664062498V22.358H896.0030664062499V23.249H892.7470664062498V26.098H896.3880664062499V27.0Z" fill="#85888E"/><path d="M909.6500781249999 28.0V17.45068359375H911.7882617187499L915.4345019531249 23.263427734375Q915.6610644531249 23.62451171875 915.9159472656249 24.0811767578125Q916.1708300781249 24.537841796875 916.4469531249999 25.1007080078125Q916.7230761718749 25.66357421875 916.9921191406249 26.350341796875H916.7797167968749Q916.7301562499999 25.755615234375 916.6912158203124 25.1290283203125Q916.6522753906249 24.50244140625 916.6345751953124 23.9395751953125Q916.6168749999999 23.376708984375 916.6168749999999 22.9873046875V17.45068359375H918.5355761718749V28.0H916.3903124999999L913.0980761718749 22.767822265625Q912.7865527343749 22.26513671875 912.5104296874999 21.776611328125Q912.2343066406249 21.2880859375 911.9157031249999 20.672119140625Q911.5970996093749 20.05615234375 911.1439746093749 19.185302734375H911.4130175781249Q911.4554980468749 19.95703125 911.4908984374999 20.6473388671875Q911.5262988281249 21.337646484375 911.5510791015624 21.8828125Q911.5758593749999 22.427978515625 911.5758593749999 22.7607421875V28.0Z M924.0084765624999 28.162841796875Q922.8544238281249 28.162841796875 922.0048144531249 27.6495361328125Q921.1552050781249 27.13623046875 920.6914599609374 26.2193603515625Q920.2277148437499 25.302490234375 920.2277148437499 24.084716796875Q920.2277148437499 22.852783203125 920.6914599609374 21.9288330078125Q921.1552050781249 21.0048828125 922.0048144531249 20.4951171875Q922.8544238281249 19.9853515625 924.0084765624999 19.9853515625Q925.1696093749999 19.9853515625 926.0192187499999 20.4951171875Q926.8688281249999 21.0048828125 927.3325732421874 21.9288330078125Q927.7963183593749 22.852783203125 927.7963183593749 24.084716796875Q927.7963183593749 25.302490234375 927.3325732421874 26.2193603515625Q926.8688281249999 27.13623046875 926.0192187499999 27.6495361328125Q925.1696093749999 28.162841796875 924.0084765624999 28.162841796875ZM924.0084765624999 26.6689453125Q924.6527636718749 26.6689453125 925.0811083984374 26.322021484375Q925.5094531249999 25.97509765625 925.7183154296874 25.387451171875Q925.9271777343749 24.7998046875 925.9271777343749 24.07763671875Q925.9271777343749 23.348388671875 925.7183154296874 22.7607421875Q925.5094531249999 22.173095703125 925.0811083984374 21.826171875Q924.6527636718749 21.479248046875 924.0084765624999 21.479248046875Q923.3641894531249 21.479248046875 922.9429248046874 21.826171875Q922.5216601562499 22.173095703125 922.3127978515624 22.7572021484375Q922.1039355468749 23.34130859375 922.1039355468749 24.07763671875Q922.1039355468749 24.7998046875 922.3127978515624 25.387451171875Q922.5216601562499 25.97509765625 922.9429248046874 26.322021484375Q923.3641894531249 26.6689453125 924.0084765624999 26.6689453125Z M931.2443164062499 23.362548828125V28.0H929.4034960937499V20.08447265625H931.1451953124999L931.1735156249999 22.03857421875H931.0248339843749Q931.3575976562499 21.011962890625 932.0018847656249 20.4986572265625Q932.6461718749999 19.9853515625 933.6161425781249 19.9853515625Q934.4303515624999 19.9853515625 935.0392382812499 20.332275390625Q935.6481249999999 20.67919921875 935.9844287109374 21.3447265625Q936.3207324218749 22.01025390625 936.3207324218749 22.966064453125V28.0H934.4799121093749V23.249267578125Q934.4799121093749 22.456298828125 934.0692675781249 22.003173828125Q933.6586230468749 21.550048828125 932.9364550781249 21.550048828125Q932.4479296874999 21.550048828125 932.0656054687499 21.762451171875Q931.6832812499999 21.974853515625 931.4637988281249 22.3819580078125Q931.2443164062499 22.7890625 931.2443164062499 23.362548828125Z M941.7723925781249 28.162841796875Q940.5758593749999 28.162841796875 939.7156298828124 27.66015625Q938.8554003906249 27.157470703125 938.3916552734374 26.244140625Q937.9279101562499 25.330810546875 937.9279101562499 24.091796875Q937.9279101562499 22.866943359375 938.3845751953124 21.946533203125Q938.8412402343749 21.026123046875 939.6802294921874 20.5057373046875Q940.5192187499999 19.9853515625 941.6520312499999 19.9853515625Q942.3741992187499 19.9853515625 943.0291064453124 20.218994140625Q943.6840136718749 20.45263671875 944.1902392578124 20.941162109375Q944.6964648437499 21.4296875 944.9832080078124 22.1837158203125Q945.2699511718749 22.937744140625 945.2699511718749 23.978515625V24.55908203125H938.7987597656249V23.305908203125H944.3566210937499L943.4928515624999 23.674072265625Q943.4928515624999 23.008544921875 943.2875292968749 22.5023193359375Q943.0822070312499 21.99609375 942.6751025390624 21.712890625Q942.2679980468749 21.4296875 941.6591113281249 21.4296875Q941.0502246093749 21.4296875 940.6254199218749 21.7164306640625Q940.2006152343749 22.003173828125 939.9775927734374 22.4810791015625Q939.7545703124999 22.958984375 939.7545703124999 23.546630859375V24.410400390625Q939.7545703124999 25.160888671875 940.0094531249999 25.677734375Q940.2643359374999 26.194580078125 940.7245410156249 26.45654296875Q941.1847460937499 26.718505859375 941.7936328124999 26.718505859375Q942.1971972656249 26.718505859375 942.5264208984374 26.6016845703125Q942.8556445312499 26.48486328125 943.0963671874999 26.2547607421875Q943.3370898437499 26.024658203125 943.4574511718749 25.69189453125L945.1495898437499 26.038818359375Q944.9584277343749 26.676025390625 944.4982226562499 27.1539306640625Q944.0380175781249 27.6318359375 943.3477099609374 27.8973388671875Q942.6574023437499 28.162841796875 941.7723925781249 28.162841796875Z" fill="#ECEAE3"/></svg>