<svg xmlns="http://www.w3.org/2000/svg" width="512" height="512" viewBox="0 0 512 512"><rect width="512" height="512" rx="115.2" fill="#0C0D0F"/><rect x="1" y="1" width="510" height="510" rx="114.2" fill="none" stroke="#2A2D31" stroke-width="2"/><rect x="25.6" y="23.04" width="460.8" height="235.52" rx="80.64" fill="#FFFFFF" opacity="0.022"/><rect x="179.2" y="25.599999999999994" width="153.6" height="87.04" rx="29.593600000000006" fill="#ECEAE3"/><rect x="185.344" y="100.352" width="141.31199999999998" height="12.288" rx="6.144" fill="#C8C6BF" opacity="0.7"/><rect x="145.92000000000002" y="92.16" width="220.16" height="92.16" rx="31.334400000000002" fill="#ECEAE3"/><rect x="152.06400000000002" y="172.03199999999998" width="207.87199999999999" height="12.288" rx="6.144" fill="#C8C6BF" opacity="0.7"/><rect x="115.19999999999999" y="163.84" width="281.6" height="97.28" rx="33.0752" fill="#ECEAE3"/><rect x="121.344" y="248.832" width="269.312" height="12.288" rx="6.144" fill="#C8C6BF" opacity="0.7"/><rect x="217.6" y="276.48" width="76.8" height="153.6" rx="20.48" fill="#ECEAE3"/><path d="M 217.6 363.52000000000004 l 46.08 -30.72 l 0 61.44 z" fill="#0C0D0F"/><path d="M 168.95999999999998 381.44000000000005 L 343.04 335.36" stroke="#C9A977" stroke-width="23.552" stroke-linecap="round"/></svg>